<svg width="21" height="23" viewBox="0 0 21 23" fill="none" xmlns="http://www.w3.org/2000/svg">
<path d="M10.3179 0.113001L20.1759 5.67404L20.2889 16.9919L10.5439 22.7487L0.685883 17.1876L0.572866 5.86979L10.3179 0.113001Z" fill="#FDF3D7"/>
<path fill-rule="evenodd" clip-rule="evenodd" d="M9.26987 9.11202C7.54515 9.44879 6.11917 10.4954 5.20913 11.5054C7.69489 13.9072 9.99137 14.3512 11.8503 13.9883C13.575 13.6515 15.001 12.6049 15.911 11.5949C13.4252 9.19306 11.1288 8.74906 9.26987 9.11202ZM4 11.4013L4.22214 11.5679L4.0375 11.7433C6.88835 14.7442 9.68147 15.4306 12.0419 14.9697C14.3614 14.5168 16.1629 12.9753 17.1201 11.699L16.898 11.5324L17.0826 11.3569C14.2318 8.35605 11.4387 7.66966 9.07823 8.13055C6.75876 8.58345 4.95727 10.125 4 11.4013ZM10.5601 12.7884C11.3606 12.7884 12.0095 12.1395 12.0095 11.339C12.0095 10.5385 11.3606 9.88954 10.5601 9.88954C9.75957 9.88954 9.11064 10.5385 9.11064 11.339C9.11064 12.1395 9.75957 12.7884 10.5601 12.7884Z" fill="#DF9C2A"/>
</svg>
