<svg width="21" height="23" viewBox="0 0 21 23" fill="none" xmlns="http://www.w3.org/2000/svg">
<path d="M10.3179 0.113062L20.1759 5.6741L20.2889 16.9919L10.5439 22.7487L0.685883 17.1877L0.572866 5.86986L10.3179 0.113062Z" fill="#FDF3D7"/>
<path fill-rule="evenodd" clip-rule="evenodd" d="M10.0162 4.1946L7.56233 5.64419L7.59079 8.49409L10.0731 9.89439L12.527 8.4448L12.4985 5.5949L10.0162 4.1946ZM13.4927 5.00759L10.0047 3.03995L6.55662 5.07686L6.5966 9.0814L10.0846 11.049L13.5327 9.01213L13.4927 5.00759Z" fill="#DF9C2A"/>
<path fill-rule="evenodd" clip-rule="evenodd" d="M9.99997 21L7.11322 16H9.49997V15.15H10.5V16H12.8867L9.99997 21ZM9.49997 12.45V12H10.5V12.45H9.49997ZM9.49997 14.25V13.35H10.5V14.25H9.49997Z" fill="#DF9C2A"/>
</svg>
