<svg viewBox="0 0 24 24" role="img" xmlns="http://www.w3.org/2000/svg">
    <g fill="#1DA1F2"><path d="M19.687 22H7.813C6.538 22 5.5 20.962 5.5 19.687V13.17c0-.413.336-.75.75-.75s.75.337.75.75v6.517c0 .448.365.813.813.813h11.873c.448 0 .813-.365.813-.813V7.813c0-.448-.365-.813-.813-.813H13.17c-.413 0-.75-.336-.75-.75s.337-.75.75-.75h6.517C20.962 5.5 22 6.538 22 7.813v11.873C22 20.962 20.962 22 19.687 22z"></path><path d="M11.996 10.936L4.56 3.5h4.636c.414 0 .75-.336.75-.75S9.61 2 9.196 2H2.75c-.414 0-.75.336-.75.75v6.455c0 .414.336.75.75.75s.75-.336.75-.75V4.56l7.436 7.437c.146.146.338.22.53.22s.384-.073.53-.22c.293-.294.293-.768 0-1.06z"></path></g>
</svg>