<?xml version="1.0" standalone="no"?>
<!DOCTYPE svg PUBLIC "-//W3C//DTD SVG 20010904//EN"
 "http://www.w3.org/TR/2001/REC-SVG-20010904/DTD/svg10.dtd">
<svg version="1.0" xmlns="http://www.w3.org/2000/svg"
 width="165.000000pt" height="165.000000pt" viewBox="0 0 165.000000 165.000000"
 preserveAspectRatio="xMidYMid meet">
<metadata>
Created by potrace 1.14, written by Peter Selinger 2001-2017
</metadata>
<g transform="translate(0.000000,165.000000) scale(0.100000,-0.100000)"
fill="#000000" stroke="none">
<path d="M728 1507 l-87 -51 31 -18 c16 -11 29 -21 27 -23 -2 -1 -33 -20 -68
-40 l-64 -38 76 -39 c79 -39 90 -51 60 -63 -16 -6 -15 -8 5 -16 12 -4 22 -13
22 -19 0 -13 -51 -5 -83 12 -17 9 -17 11 -3 27 15 16 11 20 -55 51 -39 19 -73
38 -75 42 -2 4 25 24 61 46 61 36 72 52 37 52 -8 0 -66 -30 -130 -67 l-115
-66 77 -39 c42 -21 74 -42 72 -47 -3 -5 -19 -14 -36 -21 -16 -7 -30 -16 -30
-20 0 -5 33 -25 73 -45 39 -21 79 -43 87 -51 12 -12 11 -14 -13 -14 -14 0 -70
25 -123 54 l-97 55 37 21 c20 12 36 23 36 25 0 2 -25 17 -55 34 l-55 31 -80
-46 c-54 -31 -80 -52 -80 -64 0 -13 40 -41 137 -98 l138 -80 3 -56 3 -55 78
-41 c43 -23 87 -47 97 -55 18 -14 18 -14 -4 -15 -13 0 -63 21 -112 48 l-89 47
-3 54 -3 55 -115 67 c-63 38 -118 68 -122 69 -5 0 -8 -53 -8 -118 l0 -118 35
-17 c44 -21 55 -21 55 -2 0 20 6 19 70 -16 l55 -30 -47 4 c-36 4 -48 1 -48 -9
0 -18 0 -18 -65 10 l-55 25 0 -43 0 -42 140 -67 140 -66 0 40 c0 21 2 39 4 39
10 0 96 -42 96 -47 0 -3 -16 -3 -35 -1 -35 4 -35 4 -35 -34 0 -21 -5 -38 -11
-38 -5 0 -75 31 -155 69 l-144 70 0 -86 0 -85 64 36 c35 20 67 36 70 36 3 0 6
-11 6 -25 0 -21 12 -31 78 -64 42 -22 86 -46 97 -55 20 -15 19 -15 -7 -16 -27
0 -174 73 -194 96 -8 10 -20 7 -60 -14 -43 -24 -49 -31 -52 -62 -3 -33 0 -37
55 -67 l58 -31 45 23 c56 30 68 31 72 3 4 -25 28 -37 28 -14 0 21 6 20 46 -5
40 -24 44 -43 9 -37 -17 4 -25 1 -25 -8 0 -20 -15 -17 -61 11 -26 17 -47 24
-61 19 -27 -8 -17 -17 104 -87 l96 -55 4 176 c4 200 11 226 86 294 57 52 117
72 200 66 75 -6 112 -21 160 -69 69 -68 76 -95 82 -290 l5 -177 107 62 c59 33
108 64 108 67 1 19 -37 16 -74 -6 -48 -28 -66 -31 -66 -11 0 9 -8 12 -25 8
-35 -6 -31 13 9 37 40 25 56 27 56 5 0 -8 5 -12 10 -9 6 3 10 15 10 26 0 25
24 24 79 -5 l44 -23 54 31 c51 29 54 33 51 66 -3 30 -9 38 -48 58 l-45 24 -90
-51 c-54 -31 -102 -51 -120 -51 -28 1 -29 2 -11 15 10 8 54 33 97 55 66 34 79
45 79 66 0 31 6 31 79 -10 l61 -35 0 85 0 84 -149 -74 c-82 -41 -151 -72 -155
-69 -3 4 -6 21 -6 39 0 31 -2 33 -37 36 l-38 3 49 23 c27 12 52 22 57 22 5 0
9 -16 9 -35 0 -19 3 -35 8 -34 4 0 63 28 132 62 124 62 125 62 128 100 2 20 1
37 -2 37 -2 0 -25 -9 -51 -20 -55 -24 -65 -25 -65 -6 0 10 -12 13 -47 9 l-48
-4 55 30 c64 35 70 36 70 15 0 -11 5 -14 18 -9 9 4 29 12 45 17 l27 10 0 120
0 119 -62 -36 c-35 -19 -89 -50 -120 -67 l-58 -33 0 -55 0 -55 -95 -48 c-52
-26 -102 -47 -110 -47 -33 0 -11 19 75 64 l90 47 0 54 0 53 118 70 c64 38 127
75 140 81 49 26 17 59 -129 137 -3 1 -32 -12 -64 -31 l-59 -33 37 -18 c20 -10
37 -21 37 -25 0 -16 -193 -110 -219 -107 -22 3 -13 10 61 53 49 28 88 53 88
56 0 4 -14 12 -30 19 -17 7 -33 16 -35 21 -3 4 26 24 65 45 38 20 70 40 70 44
0 8 -212 130 -227 130 -33 0 -17 -22 37 -52 33 -18 60 -38 60 -44 0 -6 -34
-27 -75 -45 -61 -28 -72 -36 -60 -45 8 -6 15 -16 15 -21 0 -9 -64 -33 -89 -33
-19 0 -12 18 11 26 20 6 20 8 5 19 -9 7 -17 15 -17 18 0 4 34 24 76 45 l77 39
-62 37 c-33 21 -61 41 -61 46 0 5 12 16 26 23 l26 14 -53 30 c-30 17 -70 39
-89 50 l-35 20 -87 -50z m136 -13 c56 -31 49 -55 -8 -28 -34 17 -38 17 -71 1
-68 -33 -78 -12 -12 26 23 14 43 25 43 26 1 1 23 -11 48 -25z m44 -351 c48
-36 72 -81 72 -138 0 -159 -200 -226 -296 -99 -25 32 -29 47 -29 99 0 51 4 67
27 97 15 19 42 42 60 52 44 22 129 17 166 -11z"/>
<path d="M744 123 c2 -5 21 -17 41 -27 l36 -20 45 25 c50 26 35 40 -15 14 -28
-14 -34 -14 -61 0 -31 16 -54 20 -46 8z"/>
</g>
</svg>
